<svg width="320" height="117" viewBox="0 0 320 117" fill="none" xmlns="http://www.w3.org/2000/svg">
<path d="M98.8286 66.2118C98.8286 66.2118 129.621 27.2065 147.925 27.3338C166.239 27.4611 186.187 53.0225 212.237 74.8595C241.438 99.328 203.313 100.357 201.106 100.559C198.91 100.76 122.979 98.076 121.716 96.7602C120.453 95.4445 100.176 78.5203 100.176 78.5203L98.8286 66.2118Z" fill="#C5DDF9"/>
<path d="M256.798 67.3885H258.104V52.9685H256.798V67.3885Z" fill="#355389"/>
<path d="M257.46 24.989L261.704 59.3043H253.216L257.46 24.989Z" fill="#3C8F7C"/>
<path d="M260.165 46.8574L254.106 52.0567L254.34 50.168L259.974 45.3401L260.165 46.8574Z" fill="#50BFA5"/>
<path d="M259.231 39.3346L255.528 40.6079L255.698 39.1966L259.072 38.04L259.231 39.3346Z" fill="#50BFA5"/>
<path d="M79.6128 41.9874L83.4114 72.6314H75.8247L79.6128 41.9874Z" fill="#3C8F7C"/>
<path d="M86.2973 46.4971L89.1834 69.8302H83.4111L86.2973 46.4971Z" fill="#3C8F7C"/>
<path d="M92.0687 53.436L94.9549 76.7798H89.1826L92.0687 53.436Z" fill="#3C8F7C"/>
<path d="M72.5247 48.8314L76.3128 79.4754H68.7261L72.5247 48.8314Z" fill="#3C8F7C"/>
<path d="M86.8601 58.3598C119.754 63.835 169.104 113.016 206.688 113.016C244.271 113.016 252.367 101.249 266.469 103.742C280.56 106.225 299.49 113.016 299.49 113.016L20.1606 113.844C20.1606 113.844 53.9666 52.8953 86.8601 58.3598Z" fill="#86B1F2"/>
<path d="M205.913 44.0354L209.712 74.6687H202.125L205.913 44.0354Z" fill="#3C8F7C"/>
<path d="M214.943 53.054L217.829 76.3871H212.057L214.943 53.054Z" fill="#3C8F7C"/>
<path d="M192.192 65.5111L195.078 88.8442H189.306L192.192 65.5111Z" fill="#3C8F7C"/>
<path d="M198.825 50.8685L202.613 81.5125H195.026L198.825 50.8685Z" fill="#3C8F7C"/>
<path d="M235.941 58.3598C203.048 63.835 153.697 113.016 116.113 113.016C78.5195 113.016 70.434 101.249 56.3323 103.742C42.2412 106.225 23.3115 113.016 23.3115 113.016L302.641 113.844C302.641 113.844 268.824 52.8953 235.941 58.3598Z" fill="#86B1F2"/>
<path d="M224.677 104.279H226.163V87.8215H224.677V104.279Z" fill="#355389"/>
<path d="M225.426 55.9082L230.265 95.062H220.577L225.426 55.9082Z" fill="#3C8F7C"/>
<path d="M228.514 80.8651L221.606 86.7859L221.871 84.6425L228.291 79.1249L228.514 80.8651Z" fill="#50BFA5"/>
<path d="M227.453 72.2806L223.219 73.7236L223.421 72.1214L227.262 70.8057L227.453 72.2806Z" fill="#50BFA5"/>
<path d="M241.456 111.295H242.868V86.4762H241.456V111.295Z" fill="#355389"/>
<path d="M241.787 42.2312L248.769 92.3247H234.816L241.787 42.2312Z" fill="#3C8F7C"/>
<path d="M248.323 89.1417L235.803 85.1945L235.994 83.8363L248.122 87.6668L248.323 89.1417Z" fill="#50BFA5"/>
<path d="M246.128 73.3211L237.83 70.7002L238.01 69.342L245.915 71.8356L246.128 73.3211Z" fill="#50BFA5"/>
<path d="M20.1606 113.844C20.1606 113.844 56.2267 82.5208 102.723 80.6002C118.332 79.953 182.272 92.9088 236.111 103.085C238.372 103.509 243.263 107.7 245.555 108.135C271.042 112.931 294.8 113.939 302.482 114.247L20.1606 113.844Z" fill="#96D9C9"/>
<path d="M310.048 79.3906L310.101 76.6954C310.101 74.69 308.573 73.0771 306.695 73.0771C301.952 73.0771 298.1 77.1623 298.1 82.2024V85.8844C298.1 87.4972 297.241 88.8978 295.988 89.6088C294.843 90.2454 294.153 91.5293 294.153 92.8981V94.8399C294.153 96.9408 295.087 98.9038 296.625 100.22C297.527 100.994 298.111 102.172 298.111 103.498V106.246C298.111 109.292 300.434 111.753 303.299 111.753H304.933C307.798 111.753 310.122 109.292 310.122 106.246C309.655 102.405 310.791 100.188 312.106 98.9144C314.037 97.0469 315.173 94.4261 315.173 91.6567V91.264C315.173 88.3355 313.899 85.5979 311.777 83.7304C310.812 82.924 310.048 81.587 310.048 79.3906Z" fill="#4E9B87"/>
<path d="M315.384 114.947C315.384 114.947 302.142 97.3646 293.812 94.6695C285.483 91.9744 293.335 102.681 293.335 102.681C293.335 102.681 278.554 86.5204 273.132 87.9741C268.166 89.3111 273.132 99.3276 273.132 99.3276C273.132 99.3276 267.53 93.7782 260.739 93.7782C253.948 93.7782 265.991 114.544 265.991 114.544L315.384 114.947Z" fill="#96D9C9"/>
<path d="M273.132 114.555C273.132 114.555 264.081 90.3515 252.876 93.1528C243.793 95.4235 250.255 107.594 249.693 107.042C249.141 106.491 244.271 98.2247 236.387 98.2247C228.503 98.2247 238.806 109.377 238.806 109.377C238.806 109.377 222.02 104.135 220.704 109.642C219.611 114.215 225.713 114.555 225.713 114.555H273.132Z" fill="#3C8F7C"/>
<path d="M66.2534 110.035C66.3065 109.738 66.3277 109.419 66.3277 109.111C66.3277 105.61 63.049 102.766 58.9956 102.766C54.9423 102.766 51.6636 105.61 51.6636 109.111C51.6636 109.43 51.6848 109.738 51.7379 110.035H66.2534Z" fill="#3C8F7C"/>
<path d="M74.5508 108.475C74.6038 108.05 74.6251 107.615 74.6251 107.17C74.6251 102.236 71.3463 98.2249 67.293 98.2249C63.2397 98.2249 59.9609 102.225 59.9609 107.17C59.9609 107.615 59.9822 108.05 60.0352 108.475H74.5508Z" fill="#50BFA5"/>
<path d="M71.8663 113.96C71.8132 113.663 71.792 113.345 71.792 113.037C71.792 109.536 75.0707 106.692 79.124 106.692C83.1774 106.692 86.4561 109.536 86.4561 113.037C86.4561 113.356 86.4349 113.663 86.3818 113.96H71.8663Z" fill="#50BFA5"/>
<path d="M60.1419 113.96C60.0782 113.536 60.0464 113.101 60.0464 112.655C60.0464 107.721 64.2058 103.71 69.3414 103.71C74.4771 103.71 78.6365 107.711 78.6365 112.655C78.6365 113.101 78.6047 113.536 78.541 113.96H60.1419Z" fill="#3C8F7C"/>
<path d="M67.2718 103.71C64.7039 103.71 62.412 104.984 60.9053 106.968C60.1307 106.788 59.3137 106.681 58.4648 106.681C53.9128 106.681 50.2202 109.525 50.2202 113.027C50.2202 113.345 50.252 113.653 50.3051 113.95H75.4314C75.4845 113.525 75.5163 113.09 75.5163 112.645C75.5163 107.721 71.8238 103.71 67.2718 103.71Z" fill="#50BFA5"/>
<path d="M35.4921 95.1262C33.3381 91.752 32.9349 87.6881 32.9774 84.8656C33.0198 81.7991 33.5928 79.5071 33.5928 79.4859L33.4336 79.4329C33.423 79.4541 32.8606 81.7672 32.8076 84.855C32.7651 87.7093 33.1684 91.8157 35.3542 95.2323L35.4921 95.1262Z" fill="#3C8F7C"/>
<path d="M34.1227 78.9128C34.0697 79.6025 33.762 80.1861 33.3163 80.5469C32.9343 80.0694 32.7221 79.4009 32.7751 78.7112C32.8282 78.0215 33.1359 77.4379 33.5816 77.0771C33.9636 77.5652 34.1758 78.2231 34.1227 78.9128Z" fill="#3C8F7C"/>
<path d="M32.6583 80.5151C33.0297 81.12 33.1358 81.799 33.0191 82.3932C32.4567 82.2553 31.9156 81.8627 31.5548 81.2685C31.1834 80.6637 31.0773 79.9846 31.194 79.3904C31.7564 79.5283 32.2976 79.9209 32.6583 80.5151Z" fill="#3C8F7C"/>
<path d="M31.8417 82.4041C32.4147 82.7755 32.7967 83.3485 32.9453 83.9427C32.4041 84.0913 31.7675 84.0064 31.2051 83.635C30.6321 83.2636 30.2501 82.6906 30.1016 82.0964C30.6321 81.9373 31.2687 82.0328 31.8417 82.4041Z" fill="#3C8F7C"/>
<path d="M32.0969 85.0247C32.5425 85.3218 32.829 85.8205 32.9033 86.3723C32.4364 86.5739 31.9059 86.5527 31.4602 86.2556C31.0146 85.9585 30.7281 85.4598 30.6538 84.908C31.1101 84.7064 31.6406 84.7276 32.0969 85.0247Z" fill="#3C8F7C"/>
<path d="M33.9532 81.916C34.4626 81.6507 35.0249 81.6295 35.513 81.8205C35.3857 82.3404 35.0462 82.8179 34.5368 83.0832C34.0275 83.3484 33.4651 83.3697 32.9771 83.1787C33.1044 82.6588 33.4439 82.1813 33.9532 81.916Z" fill="#3C8F7C"/>
<path d="M33.8995 83.7306C34.4088 83.4653 34.9712 83.4441 35.4593 83.6351C35.332 84.155 34.9924 84.6325 34.4831 84.8978C33.9738 85.163 33.4114 85.1842 32.9233 84.9933C33.0507 84.4627 33.3902 83.9958 33.8995 83.7306Z" fill="#3C8F7C"/>
<path d="M32.4145 87.9004C32.6798 87.9641 32.9026 88.1445 33.0406 88.3779C32.8496 88.5371 32.5949 88.6007 32.3296 88.5477C32.0644 88.484 31.8416 88.3036 31.7036 88.0702C31.8946 87.911 32.1493 87.8368 32.4145 87.9004Z" fill="#3C8F7C"/>
<path d="M34.6015 97.503C29.6675 96.3252 25.9007 92.6645 23.6088 89.8102C21.1258 86.7118 19.7889 83.8469 19.7783 83.8257L19.5767 83.9318C19.5873 83.9636 20.9348 86.8392 23.4284 89.9587C25.7415 92.8449 29.5508 96.5374 34.5485 97.7258L34.6015 97.503Z" fill="#3C8F7C"/>
<path d="M19.841 82.7332C20.3609 83.476 20.5307 84.3673 20.3927 85.1737C19.6182 85.0782 18.8648 84.6326 18.3343 83.8792C17.8037 83.1258 17.6446 82.2451 17.7825 81.4387C18.5677 81.5448 19.3211 81.9799 19.841 82.7332Z" fill="#3C8F7C"/>
<path d="M19.713 85.7992C20.5725 86.0327 21.2515 86.595 21.6229 87.306C20.9544 87.741 20.0844 87.9002 19.2249 87.6667C18.3654 87.4333 17.6863 86.8709 17.3149 86.16C17.9834 85.725 18.8535 85.5764 19.713 85.7992Z" fill="#3C8F7C"/>
<path d="M20.4455 88.5162C21.3156 88.3146 22.1751 88.4949 22.8223 88.9406C22.4085 89.6409 21.6976 90.1927 20.8275 90.3943C19.9574 90.5959 19.0979 90.4155 18.4507 89.9699C18.8645 89.2695 19.5648 88.7178 20.4455 88.5162Z" fill="#3C8F7C"/>
<path d="M22.4084 90.9778C23.2785 90.7762 24.138 90.9566 24.7852 91.4023C24.3714 92.1026 23.6605 92.6543 22.7904 92.8559C21.9203 93.0575 21.0608 92.8772 20.4136 92.4315C20.8274 91.7312 21.5383 91.1901 22.4084 90.9778Z" fill="#3C8F7C"/>
<path d="M21.8246 86.8817C21.7822 86.0435 22.058 85.2477 22.5249 84.6853C23.0448 85.131 23.4056 85.8419 23.448 86.6907C23.4905 87.529 23.2146 88.3248 22.7477 88.8872C22.2172 88.4309 21.867 87.72 21.8246 86.8817Z" fill="#3C8F7C"/>
<path d="M23.8734 89.4286C23.8204 88.5904 24.0856 87.7945 24.5419 87.2216C25.0724 87.6566 25.4438 88.3675 25.4969 89.2058C25.5499 90.044 25.2846 90.8398 24.8284 91.4128C24.2978 90.9778 23.9265 90.2669 23.8734 89.4286Z" fill="#3C8F7C"/>
<path d="M25.5715 93.4185C25.8898 93.2062 26.2612 93.1638 26.5902 93.2699C26.5371 93.6201 26.3355 93.949 26.0172 94.1612C25.6988 94.3734 25.3275 94.4159 24.9985 94.3098C25.0516 93.949 25.2532 93.6201 25.5715 93.4185Z" fill="#3C8F7C"/>
<path d="M47.6729 104.485L47.8852 104.474C47.5774 98.8293 49.6466 93.5133 51.4398 90.0436C53.3816 86.2873 55.4294 83.8363 55.4507 83.8044L55.2915 83.6453C55.2703 83.6665 53.2118 86.1388 51.2488 89.9162C49.4556 93.4072 47.3652 98.7762 47.6729 104.485Z" fill="#3C8F7C"/>
<path d="M56.3957 83.4756C55.9076 84.2926 55.2073 84.8019 54.4963 84.9505C54.3796 84.091 54.5494 83.136 55.0375 82.3084C55.5256 81.4914 56.2259 80.982 56.9368 80.8335C57.0535 81.693 56.8838 82.6585 56.3957 83.4756Z" fill="#3C8F7C"/>
<path d="M53.7847 84.4615C53.8165 85.4483 53.5194 86.3714 53.0313 87.0293C52.4901 86.4776 52.1294 85.6287 52.0975 84.6313C52.0657 83.6445 52.3628 82.7213 52.8509 82.0635C53.3921 82.6152 53.7528 83.4641 53.7847 84.4615Z" fill="#3C8F7C"/>
<path d="M51.7056 86.2235C52.1088 87.0723 52.1831 88.0379 51.9709 88.8868C51.2812 88.7064 50.6339 88.1652 50.2307 87.3164C49.8275 86.4675 49.7532 85.5019 49.9654 84.6531C50.6551 84.8335 51.3024 85.3852 51.7056 86.2235Z" fill="#3C8F7C"/>
<path d="M50.2731 90.5631C50.4641 90.9026 50.5277 91.3058 50.4641 91.6666C50.167 91.6135 49.8805 91.4119 49.6895 91.0724C49.4985 90.7329 49.4348 90.3296 49.4985 89.9689C49.7956 90.0219 50.0821 90.2235 50.2731 90.5631Z" fill="#3C8F7C"/>
<path d="M49.6574 92.1233C49.8483 92.4628 49.912 92.866 49.8483 93.2268C49.5512 93.1737 49.2648 92.9721 49.0738 92.6326C48.8828 92.293 48.8191 91.8898 48.8828 91.5291C49.1799 91.5821 49.4664 91.7837 49.6574 92.1233Z" fill="#3C8F7C"/>
<path d="M54.3476 87.0731C55.0798 87.0837 55.7164 87.4551 56.1302 88.0281C55.6634 88.5905 54.9949 88.9406 54.2733 88.93C53.5412 88.9194 52.9045 88.548 52.4907 87.975C52.947 87.4127 53.6155 87.0625 54.3476 87.0731Z" fill="#3C8F7C"/>
<path d="M53.1591 89.2689C53.8913 89.2795 54.5279 89.6509 54.9417 90.2239C54.4749 90.7863 53.8064 91.1364 53.0849 91.1258C52.3527 91.1152 51.7161 90.7438 51.3022 90.1708C51.7691 89.6085 52.4376 89.2583 53.1591 89.2689Z" fill="#3C8F7C"/>
<path d="M51.2072 92.2721C51.6847 92.2827 52.0985 92.5161 52.3638 92.8875C52.0561 93.2483 51.621 93.4817 51.1541 93.4711C50.6767 93.4605 50.2628 93.2271 49.9976 92.8557C50.2947 92.4949 50.7297 92.2721 51.2072 92.2721Z" fill="#3C8F7C"/>
<path d="M29.263 113.749C29.263 112.804 34.9398 113.918 35.4173 112.635C35.8947 111.351 30.5575 111.276 30.5575 109.547C30.5575 107.817 33.2739 109.027 34.8761 109.027C36.4677 109.027 31.7247 108.284 31.7247 107.669C31.7247 107.053 33.3906 107.382 33.3906 106.724C33.3906 106.077 24.6473 105.578 25.6766 103.987C26.6952 102.395 31.3958 104.454 32.6903 103.626C33.9848 102.798 25.8039 101.896 25.5917 100.676C25.3901 99.4454 31.6186 101.727 32.4993 100.846C33.38 99.9653 22.6419 96.7927 23.0981 94.4583C23.5438 92.1239 31.2366 97.4399 33.1572 96.867C35.0777 96.294 23.4695 88.1131 26.1646 84.9298C28.8598 81.7466 34.0166 95.4769 35.778 94.9888C37.5394 94.5007 33.571 86.3092 35.3748 84.8874C37.168 83.4655 42.3249 96.4213 42.6538 99.074C42.9828 101.737 43.63 93.3548 46.4525 92.368C49.275 91.3918 46.5374 97.5567 47.0255 99.4454C47.5136 101.323 49.8055 94.6175 52.8932 95.1162C55.981 95.6043 47.312 101.737 48.1714 103.541C49.0309 105.345 55.7263 97.5354 57.8166 99.6364C59.9176 101.737 49.7524 107.552 50.3148 109.144C50.8666 110.735 56.9678 108.008 58.7186 109.759C60.4693 111.51 52.1717 112.624 51.0682 112.624C49.9647 112.624 45.7628 114.003 49.8692 113.738C53.9543 113.473 29.263 114.682 29.263 113.749Z" fill="#3C8F7C"/>
<path d="M45.4463 114.831C45.4463 114.831 52.2796 115.202 54.2745 113.94C56.2693 112.688 54.6989 111.711 54.6989 111.711C54.6989 111.711 61.0229 111.573 61.0017 110.077C60.9911 108.581 59.4525 108.666 59.4525 108.666C59.4525 108.666 62.6464 106.502 62.0522 105.143C61.1396 103.064 55.9404 106.682 55.9404 106.682C55.9404 106.682 57.6487 104.655 56.2693 104.188C52.4812 102.894 45.4463 114.831 45.4463 114.831Z" fill="#50BFA5"/>
<path d="M62.0512 105.143C62.6454 106.49 59.4516 108.666 59.4516 108.666C59.4516 108.666 61.7541 108.634 61.3827 110.087C61.0113 111.541 55.2178 112.029 55.2178 112.029C55.2178 112.029 57.2445 112.422 55.2497 113.674C53.2548 114.926 45.4453 114.82 45.4453 114.82L62.0512 105.143Z" fill="#96D9C9"/>
<path d="M17.455 55.166C17.4656 54.7946 17.975 54.5081 18.2508 54.8371C18.5161 55.166 18.5055 54.9432 18.7708 55.6541C19.5241 57.6808 20.6383 59.6438 21.9222 61.3627C24.3945 64.6521 26.8456 66.3073 29.6256 67.952C28.4796 65.3736 27.7157 62.6148 27.6202 59.8348C27.5883 58.8267 27.5989 57.7763 28.034 56.8425C28.1507 56.5879 28.6176 56.6409 28.6706 56.9274C28.9041 58.3599 28.5645 59.4422 29.0208 62.01C30.1243 68.1324 34.5066 74.6262 38.7403 79.1782C37.9339 71.4748 37.5413 62.7315 38.9843 54.9644C39.2178 53.6911 39.5998 52.4815 39.9499 51.2294C40.0348 50.9323 40.4486 51.0596 40.3956 51.3567C40.3213 51.7706 39.6316 57.1184 39.5891 57.4792C38.9207 63.3894 39.048 69.9468 39.5785 75.9207C42.8573 71.4748 45.0537 66.2861 46.0829 60.864C46.3907 59.2618 46.4649 57.6065 46.8894 56.0361C46.953 55.8239 47.3032 55.792 47.3456 56.0361C47.7807 58.3917 46.9106 62.5617 46.2739 64.8324C44.9794 69.4269 42.9103 73.5439 40.0878 77.2152C39.9817 77.3532 44.6293 113.292 44.5019 113.748C44.2897 114.512 42.9528 115.053 42.7512 113.695C42.6663 113.143 40.1091 91.2958 38.9631 81.1731C38.5281 80.929 38.2522 80.5046 37.1274 79.2419C34.5384 76.3239 31.9706 72.7057 30.2623 69.2784C29.233 69.2147 21.8055 65.607 18.1235 57.3837C18.0174 57.1502 17.5399 56.0361 17.4656 55.7814C17.3914 55.5586 17.4444 55.3782 17.455 55.166Z" fill="#184655"/>
<path d="M41.2972 43.5152C41.2124 42.4117 41.1699 41.2763 41.1699 40.1303C41.1699 27.2913 46.6133 16.8927 53.3405 16.8927C60.0571 16.8927 65.5111 27.3019 65.5111 40.1303C65.5111 41.2763 65.4686 42.4117 65.3837 43.5152H41.2972Z" fill="#50BFA5"/>
<path d="M27.535 37.8071C27.4502 36.2473 27.4077 34.6557 27.4077 33.0322C27.4077 14.9302 32.851 0.255493 39.5783 0.255493C46.3055 0.255493 51.7383 14.9196 51.7383 33.0216C51.7383 34.6451 51.6958 36.2367 51.6109 37.7965H27.535V37.8071Z" fill="#96D9C9"/>
<path d="M31.9804 57.8826C32.0653 56.7791 32.1078 55.6437 32.1078 54.4978C32.1078 41.6587 26.6644 31.2601 19.9372 31.2601C13.2205 31.2601 7.7666 41.6693 7.7666 54.4978C7.7666 55.6437 7.80904 56.7791 7.89393 57.8826H31.9804Z" fill="#96D9C9"/>
<path d="M51.4622 57.8828C51.5683 56.323 51.6213 54.7314 51.6213 53.1079C51.6213 35.0059 44.7137 20.3312 36.1932 20.3312C27.6728 20.3312 20.7651 35.0059 20.7651 53.1079C20.7651 54.7314 20.8182 56.323 20.9243 57.8828H51.4622Z" fill="#50BFA5"/>
<path d="M39.6199 20.3312C43.8748 20.3312 47.6841 24.9893 50.1883 32.2895C51.4616 31.6211 52.8197 31.2603 54.231 31.2603C61.7859 31.2603 67.9189 41.6695 67.9189 54.4979C67.9189 55.6439 67.8658 56.7792 67.7703 57.8828H26.0699C25.9744 56.323 25.9214 54.7314 25.9214 53.1079C25.932 35.0059 32.0544 20.3312 39.6199 20.3312Z" fill="#96D9C9"/>
<path d="M18.8969 108.549C18.9394 108.135 18.9606 107.7 18.9606 107.265C18.9606 102.416 16.2018 98.4794 12.7957 98.4794C9.38967 98.4794 6.63086 102.416 6.63086 107.265C6.63086 107.7 6.65208 108.125 6.69452 108.549H18.8969Z" fill="#3C8F7C"/>
<path d="M25.8681 106.385C25.9106 105.79 25.9318 105.196 25.9318 104.581C25.9318 97.7367 23.173 92.1979 19.7669 92.1979C16.3609 92.1979 13.6021 97.7473 13.6021 104.581C13.6021 105.196 13.6233 105.801 13.6657 106.385H25.8681Z" fill="#50BFA5"/>
<path d="M23.6096 113.971C23.5671 113.557 23.5459 113.122 23.5459 112.687C23.5459 107.838 26.3047 103.901 29.7108 103.901C33.1168 103.901 35.8756 107.838 35.8756 112.687C35.8756 113.122 35.8544 113.546 35.812 113.971H23.6096Z" fill="#50BFA5"/>
<path d="M13.7509 113.971C13.6978 113.377 13.666 112.783 13.666 112.167C13.666 105.323 17.1676 99.7843 21.4756 99.7843C25.7942 99.7843 29.2851 105.334 29.2851 112.167C29.2851 112.783 29.2533 113.387 29.2002 113.971H13.7509Z" fill="#3C8F7C"/>
<path d="M19.7463 99.7843C17.5923 99.7843 15.6612 101.546 14.3879 104.304C13.7406 104.05 13.0509 103.912 12.34 103.912C8.50949 103.912 5.41113 107.848 5.41113 112.698C5.41113 113.133 5.43236 113.557 5.48541 113.982H26.6009C26.6539 113.387 26.6752 112.793 26.6752 112.178C26.6752 105.334 23.5768 99.7843 19.7463 99.7843Z" fill="#50BFA5"/>
<path d="M136.562 15.2568V14.4667H133.893V15.2568H136.562Z" fill="#F7CC7F"/>
<path d="M139.513 33.0042V14.3749C139.513 13.1458 138.512 12.145 137.283 12.145H133.403C132.174 12.145 131.173 13.1458 131.173 14.3749V33.0042C131.173 34.2333 132.174 35.2341 133.403 35.2341H137.283C138.512 35.2341 139.513 34.2333 139.513 33.0042Z" fill="#F47458"/>
<path d="M135.352 35.2341H137.581C138.652 35.2341 139.513 34.76 139.513 34.1806V13.1985C139.513 12.6191 138.898 12.145 137.845 12.145H135.352V35.2341Z" fill="#B75742"/>
<path d="M135.714 26.0689V20.696H134.731V26.0689H135.714Z" fill="#1A1A1A"/>
<path d="M147.449 32.9696V19.4147C147.449 18.168 146.431 17.1497 145.184 17.1497H141.374C140.127 17.1497 139.109 18.168 139.109 19.4147V32.9696C139.109 34.2162 140.127 35.2346 141.374 35.2346H145.184C146.431 35.2346 147.449 34.2162 147.449 32.9696Z" fill="#355389"/>
<path d="M143.289 35.2343H145.518C146.59 35.2343 147.45 34.8656 147.45 34.409V17.9921C147.45 17.5356 146.59 17.1669 145.518 17.1669H143.289V35.2343Z" fill="#5184CE"/>
<path d="M144.497 19.5723V18.9578H141.828V19.5723H144.497Z" fill="#F7CC7F"/>
<path d="M143.659 28.0587V23.8447H142.676V28.0587H143.659Z" fill="#1A1A1A"/>
<path d="M103.853 35.5327H103.449V39.5887H103.853V35.5327Z" fill="#13375B"/>
<path d="M152.137 35.5327H151.733V39.5887H152.137V35.5327Z" fill="#13375B"/>
<path d="M134.703 26.8942H107.172C105.82 26.8942 104.731 27.9828 104.731 29.3348V32.7762C104.731 34.1281 105.82 35.2168 107.172 35.2168H134.703C136.055 35.2168 137.143 34.1281 137.143 32.7762V29.3348C137.161 27.9828 136.055 26.8942 134.703 26.8942Z" fill="#B75742"/>
<path d="M137.161 31.0555V28.8256C137.161 27.7545 136.494 26.8942 135.686 26.8942H106.223C105.416 26.8942 104.749 27.7545 104.749 28.8256V31.0555H137.161Z" fill="#91342A"/>
<path d="M109.963 29.844H108.857V32.5128H109.963V29.844Z" fill="#F7CC7F"/>
<path d="M133.035 29.844H131.929V32.5128H133.035V29.844Z" fill="#F7CC7F"/>
<path d="M124.273 30.6869H116.723V31.6701H124.273V30.6869Z" fill="#1A1A1A"/>
<path d="M129.856 18.5541H112.035C110.577 18.5541 109.418 19.7305 109.418 21.1703V24.2605C109.418 25.7178 110.595 26.8767 112.035 26.8767H129.856C131.314 26.8767 132.472 25.7003 132.472 24.2605V21.1878C132.49 19.7305 131.314 18.5541 129.856 18.5541Z" fill="#4E9B87"/>
<path d="M132.489 22.7329V20.4855C132.489 19.4144 132.015 18.5541 131.436 18.5541H110.454C109.874 18.5541 109.4 19.4144 109.4 20.4855V22.7154H132.489V22.7329Z" fill="#3C8F7C"/>
<path d="M112.508 21.521H111.718V24.1898H112.508V21.521Z" fill="#F7CC7F"/>
<path d="M150.364 35.217L131.278 35.1995L130.962 26.7013H150.364C152.717 26.7013 154.631 28.6151 154.631 30.9679C154.631 33.3207 152.717 35.217 150.364 35.217Z" fill="#FAE0B2"/>
<path d="M135.352 30.9679C135.352 33.3207 133.596 35.2346 131.436 35.2346C129.277 35.2346 127.521 33.3207 127.521 30.9679C127.521 28.6151 129.277 26.7013 131.436 26.7013C133.596 26.7013 135.352 28.6151 135.352 30.9679Z" fill="#F7CC7F"/>
<path d="M139.391 35.6205C139.215 35.48 139.18 35.2342 139.303 35.041C140.603 33.215 140.954 31.266 140.374 29.2644C140.058 28.1407 139.496 27.2979 139.198 26.8765C139.075 26.7009 139.092 26.4726 139.251 26.3322C139.426 26.1741 139.707 26.1917 139.865 26.4024C140.216 26.8765 140.796 27.8071 141.164 29.0186C141.638 30.5988 141.779 33.0043 139.988 35.5502C139.848 35.7258 139.584 35.7609 139.391 35.6205Z" fill="#F47458"/>
<path d="M146.38 35.6205C146.204 35.48 146.169 35.2342 146.292 35.041C147.591 33.215 147.942 31.266 147.363 29.2644C147.047 28.1407 146.485 27.2979 146.187 26.8765C146.064 26.7009 146.081 26.4726 146.239 26.3322C146.415 26.1741 146.696 26.1917 146.854 26.4024C147.205 26.8765 147.784 27.8071 148.153 29.0186C148.627 30.5988 148.768 33.0043 146.977 35.5502C146.819 35.7258 146.555 35.7609 146.38 35.6205Z" fill="#F47458"/>
<path d="M134.667 30.1946C134.456 28.8602 133.737 28.1754 133.157 27.8418C132.314 27.3502 131.208 27.2799 130.242 27.6487C129.312 27.9998 128.574 28.825 128.293 29.7732C128.048 30.616 128.223 31.4939 128.785 32.2138C129.716 33.4253 131.155 33.2322 131.858 32.9337C132.49 32.6527 132.964 32.0031 133.069 31.2832C133.157 30.6862 132.876 30.1244 132.367 29.7907C131.858 29.4571 131.208 29.4571 130.717 29.7907C130.348 30.0366 129.979 30.4931 130.33 31.3885L130.611 31.2832C130.383 30.7213 130.471 30.3175 130.875 30.0541C131.278 29.7907 131.788 29.7907 132.209 30.0541C132.63 30.3175 132.841 30.774 132.771 31.2481C132.683 31.8802 132.279 32.442 131.735 32.6703C131.12 32.9337 129.839 33.1093 129.013 32.0558C128.381 31.2305 128.416 30.4228 128.574 29.8961C128.82 29.0357 129.505 28.2807 130.33 27.9647C131.226 27.6135 132.227 27.6838 132.999 28.1227C133.737 28.5441 134.211 29.2816 134.351 30.2648C134.544 31.529 134.316 32.5298 133.649 33.2497C132.402 34.6017 129.768 34.5841 129.312 34.5666C129.47 34.6719 129.645 34.7773 129.821 34.8651H129.839C130.646 34.8651 132.683 34.7246 133.859 33.4429C134.614 32.6527 134.878 31.5641 134.667 30.1946Z" fill="#F47458"/>
<path d="M129.558 21.521H128.768V24.1898H129.558V21.521Z" fill="#F7CC7F"/>
<path d="M123.324 22.3643H117.951V23.3475H123.324V22.3643Z" fill="#1A1A1A"/>
<path d="M116.228 18.2059L107.152 35.4135L107.416 35.5527L116.492 18.3452L116.228 18.2059Z" fill="black"/>
<path d="M126.42 18.0745L126.156 18.2137L135.471 35.8716L135.735 35.7324L126.42 18.0745Z" fill="black"/>
<path d="M145.597 16.924L145.32 17.0366L152.868 35.5575L153.144 35.4449L145.597 16.924Z" fill="black"/>
<path d="M136.548 11.9831L136.267 12.0824L144.538 35.5277L144.82 35.4284L136.548 11.9831Z" fill="black"/>
<path d="M153.981 35.2169H101.675V35.7612H153.981V35.2169Z" fill="#13375B"/>
<path d="M64.9077 93.7566C64.9077 93.7566 104.818 100.376 105.309 100.095C105.783 99.8141 110.963 77.4977 110.963 77.4977C110.963 77.4977 77.9535 71.563 77.4267 71.563C76.9 71.563 69.7187 77.3045 69.6133 77.6908C69.508 78.0771 64.9077 93.7566 64.9077 93.7566Z" fill="#183658"/>
<path d="M186.674 99.4273C187.64 99.5151 235.977 98.4791 235.977 98.4791L232.343 87.3648C232.343 87.3648 225.636 77.2337 222.106 77.4093C218.56 77.6024 197.507 74.1786 193.873 76.707C190.238 79.2353 186.99 77.2162 185.252 83.2562C183.531 89.2786 182.179 89.9634 183.531 93.598C184.848 97.2325 186.674 99.4273 186.674 99.4273Z" fill="#183658"/>
<path d="M85.0643 114.194C94.1506 114.194 101.516 106.828 101.516 97.7418C101.516 88.6556 94.1506 81.2898 85.0643 81.2898C75.9781 81.2898 68.6123 88.6556 68.6123 97.7418C68.6123 106.828 75.9781 114.194 85.0643 114.194Z" fill="#1A1A1A"/>
<path d="M85.0646 109.19C91.3872 109.19 96.5126 104.064 96.5126 97.7419C96.5126 91.4194 91.3872 86.2939 85.0646 86.2939C78.7421 86.2939 73.6167 91.4194 73.6167 97.7419C73.6167 104.064 78.7421 109.19 85.0646 109.19Z" fill="#9E9DA2"/>
<path d="M85.0641 105.397C89.292 105.397 92.7194 101.97 92.7194 97.7416C92.7194 93.5136 89.292 90.0862 85.0641 90.0862C80.8361 90.0862 77.4087 93.5136 77.4087 97.7416C77.4087 101.97 80.8361 105.397 85.0641 105.397Z" fill="#D8D9DD"/>
<path d="M211.748 114.194C220.835 114.194 228.2 106.828 228.2 97.7418C228.2 88.6556 220.835 81.2898 211.748 81.2898C202.662 81.2898 195.296 88.6556 195.296 97.7418C195.296 106.828 202.662 114.194 211.748 114.194Z" fill="#1A1A1A"/>
<path d="M211.748 109.19C218.071 109.19 223.196 104.064 223.196 97.7419C223.196 91.4194 218.071 86.2939 211.748 86.2939C205.426 86.2939 200.3 91.4194 200.3 97.7419C200.3 104.064 205.426 109.19 211.748 109.19Z" fill="#9E9DA2"/>
<path d="M204.093 97.7416C204.093 101.973 207.517 105.397 211.748 105.397C215.98 105.397 219.404 101.973 219.404 97.7416C219.404 93.5101 215.98 90.0862 211.748 90.0862C207.517 90.0687 204.093 93.5101 204.093 97.7416Z" fill="#D8D9DD"/>
<path d="M249.515 82.0619C248.128 72.8965 243.633 70.9651 230.324 68.2963C215.646 65.3641 197.016 55.7948 197.016 55.7948C197.016 55.7948 165.236 40.2207 157.458 38.4297C149.679 36.6388 130.523 37.148 114.44 37.2885C98.3568 37.4114 88.9104 41.8887 80.7459 48.2623C72.5813 54.636 58.4118 59.4996 58.4118 59.4996L55.8308 59.9561C53.1795 60.4302 51.2656 62.7303 51.2656 65.4167V88.1722C51.2656 90.7532 53.0039 93.0007 55.4972 93.6679L64.803 96.126C65.558 96.249 66.2603 95.7222 66.3481 94.9496C67.3665 85.6438 75.4082 78.5678 85.0125 78.5678C95.2138 78.5854 103.589 86.9607 103.589 97.1795C103.589 98.3384 103.484 99.4797 103.273 100.568C103.062 101.71 103.94 102.745 105.099 102.745H190.695C192.363 102.745 193.645 101.288 193.434 99.6377C193.329 98.8476 193.276 98.0399 193.276 97.2147C193.241 87.1362 201.406 78.7785 211.484 78.5678C221.931 78.3571 230.465 86.7499 230.465 97.162C230.465 97.8467 230.43 98.5315 230.359 99.1987C230.149 101.095 231.624 102.745 233.52 102.745H245.828C248.058 102.745 249.884 100.937 249.884 98.6895V86.7675C249.849 85.2224 249.761 83.6246 249.515 82.0619Z" fill="#F7CC7F"/>
<path d="M51.81 68.1208H61.9411C62.8015 68.1208 63.3985 68.9988 63.0648 69.8064L61.9236 72.528C60.835 75.1266 58.3066 76.8122 55.4973 76.8122H51.81C51.0901 76.8122 50.4932 76.2327 50.4932 75.4953V69.4377C50.4932 68.7003 51.0901 68.1208 51.81 68.1208Z" fill="#CF283C"/>
<path d="M233.397 72.3354C238.98 73.1957 245.407 78.4808 245.407 78.4808C246.952 80.1312 245.67 82.8176 243.423 82.6771L232.537 81.9924C230.272 81.8519 228.34 80.3068 227.726 78.1296C226.655 74.4599 227.55 71.4399 233.397 72.3354Z" fill="#EAFCFC"/>
<path d="M51.3181 89.0325C50.6158 89.015 50.1242 89.7173 50.3875 90.367C51.1074 92.2106 52.6701 93.6503 54.6717 94.1771L65.1013 96.9337C65.9441 97.0742 66.7342 96.4772 66.8396 95.6169C67.0327 93.8435 67.4541 92.1579 68.0687 90.5601C68.2794 90.0158 67.8755 89.4364 67.3137 89.4188L51.3181 89.0325Z" fill="#EAB054"/>
<path d="M230.535 93.317C229.745 93.2994 229.131 93.9842 229.236 94.7743C229.341 95.6522 229.411 96.5301 229.411 97.4432C229.411 98.2157 229.376 98.9532 229.289 99.7082C229.06 101.815 230.693 103.659 232.8 103.659H246.461C248.936 103.659 250.955 101.64 250.955 99.1639V95.6347C250.955 94.6338 250.148 93.8086 249.147 93.791L230.535 93.317Z" fill="#EAB054"/>
<path opacity="0.5" d="M197.034 61.08C196.858 60.9746 178.756 51.0542 166.763 45.4883C154.876 39.9926 141.62 40.572 141.058 40.5895C139.531 40.5544 107.803 39.8697 98.058 42.9072C88.2254 45.9624 75.4431 59.9211 74.8988 60.5181L74.7583 60.6761L78.1997 76.8297L78.5684 76.8121C88.5766 76.2503 96.232 78.9191 100.727 84.5202C104.116 88.7517 104.537 93.2291 104.537 93.2817L104.572 93.668L140.654 94.5986H141.076L141.515 94.6161L191.801 95.5994V95.1605C192.047 78.8138 197.227 61.7647 197.262 61.5892L197.367 61.2556L197.034 61.08ZM105.327 92.8077C105.152 91.5961 104.397 87.7685 101.412 84.011C98.1985 79.9726 91.6669 75.3021 78.8845 75.9342L75.6889 60.9395C77.1638 59.3417 89.2789 46.5593 98.3214 43.7325C107.364 40.9056 136.774 41.3797 140.654 41.4499V93.7207L105.327 92.8077ZM190.923 94.7039L141.497 93.7382V41.4499C143.815 41.3797 155.702 41.3094 166.412 46.2784C177.527 51.423 193.891 60.3425 196.331 61.677C195.594 64.1175 191.239 79.639 190.923 94.7039Z" fill="#FEB546"/>
<path opacity="0.5" d="M50.3877 90.3679C51.1076 92.2115 52.6703 93.6513 54.6719 94.178L65.1015 96.9347C65.9443 97.0752 66.7344 96.4782 66.8398 95.6178C66.91 94.9331 67.0153 94.2658 67.1558 93.6162L50.3877 90.3679Z" fill="#FEB546"/>
<path opacity="0.5" d="M229.376 98.4263C229.359 98.8652 229.324 99.2866 229.271 99.7256C229.043 101.833 230.675 103.676 232.782 103.676H246.443C248.918 103.676 250.938 101.657 250.938 99.1813V98.4438H229.376V98.4263Z" fill="#FEB546"/>
<path d="M194.066 98.4268C194.066 97.4962 194.136 96.5831 194.259 95.6877C194.417 94.6166 193.61 93.6334 192.521 93.5982L103.483 91.421C102.518 91.4035 101.815 92.3165 102.079 93.2646C102.535 94.8976 102.781 96.6182 102.781 98.3916C102.781 99.568 102.676 100.709 102.465 101.833C102.254 102.992 103.132 104.08 104.309 104.08H191.433C193.136 104.08 194.435 102.571 194.207 100.867C194.119 100.06 194.066 99.2344 194.066 98.4268Z" fill="#EAB054"/>
<path opacity="0.5" d="M194.067 98.4266C194.067 98.409 194.067 98.3915 194.067 98.3739H102.8C102.8 99.5503 102.694 100.692 102.483 101.815C102.273 102.974 103.151 104.063 104.327 104.063H191.451C193.154 104.063 194.453 102.553 194.225 100.85C194.12 100.059 194.067 99.2343 194.067 98.4266Z" fill="#FEB546"/>
<path d="M85.4162 62.6079L134.614 63.0644C134.614 63.0644 137.634 62.9766 138.038 60.1497C138.442 57.3228 138.407 45.1726 138.407 45.1726C138.407 45.1726 138.056 42.732 135.72 42.6968C134.298 42.6793 122.411 41.8365 110.858 43.2411C101.429 44.3824 92.7028 48.7018 86.0834 55.3212L82.5893 58.8153C82.5893 58.8153 80.2365 62.5552 85.4162 62.6079Z" fill="#EAFCFC"/>
<path d="M143.885 46.7179V59.4476C143.885 61.0981 145.149 62.4676 146.764 62.5203L185.427 64.083C186.323 64.1181 187.183 63.7143 187.692 62.9593C188.395 61.9409 188.465 60.2553 185.006 57.9903C178.984 54.0748 163.655 45.5766 157.984 44.769C154.367 44.2422 149.644 44.0139 146.694 43.9261C145.167 43.8735 143.885 45.1377 143.885 46.7179Z" fill="#EAFCFC"/>
<path d="M92.7036 56.6552C92.7036 56.6552 124.765 53.0031 125.45 53.6352C126.134 54.2673 130.594 64.6968 131.402 67.5413L93.6342 67.1901L90.9829 63.1868L92.7036 56.6552Z" fill="#B75742"/>
<path d="M160.689 59.5347C160.689 59.5347 163.639 63.0287 164.482 66.7862L163.551 68.2962L161.69 66.3297L160.689 59.5347Z" fill="#263D60"/>
<path d="M163.832 50.3697C163.27 46.6825 159.934 44.0312 156.458 45.8222C155.668 46.226 154.614 47.0337 154.07 47.736C152.613 49.6147 152.226 51.9324 150.716 53.7585C151.278 54.1799 151.945 54.6188 152.736 55.0402L153.684 53.776L153.368 55.3387C155.703 56.4625 159.004 57.3755 163.534 57.3579C164.096 54.812 164.131 52.3363 163.832 50.3697Z" fill="#1A1A1A"/>
<path d="M156.017 58.4808C156.017 58.4808 152.663 58.2701 151.346 59.7098C150.012 61.1496 154.296 72.58 154.524 74.4061C154.77 76.2497 152.54 79.9018 152.54 79.9018C152.54 79.9018 161.758 84.2211 164.023 82.7287C164.023 82.7287 163.655 67.9973 163.426 66.698C163.181 65.3811 161.179 60.0435 160.687 59.5167C160.196 59.0075 156.017 58.4808 156.017 58.4808Z" fill="#355389"/>
<path d="M157.124 54.0042C157.124 54.0042 157.106 54.1095 157.071 54.2675C156.913 55.0752 156.351 57.7441 155.965 58.4815C155.491 59.377 157.58 62.2038 159.582 61.8527C160.179 61.7473 159.073 59.2541 159.125 58.9907C159.231 58.4815 159.371 57.7967 159.512 57.0769C159.6 56.673 159.67 56.2692 159.74 55.8829C159.951 54.7943 160.126 53.9164 160.126 53.9164L157.124 54.0042Z" fill="#F7A491"/>
<path d="M92.9487 57.2703C92.9136 57.042 92.8258 56.8489 92.7029 56.6558L87.9447 61.4316C87.9447 61.4316 84.3628 67.1029 92.2464 67.1907L94.4061 67.2082L92.9487 57.2703Z" fill="#B75742"/>
<path opacity="0.3" d="M157.072 54.2679C157.107 54.0924 157.124 54.0046 157.124 54.0046L160.127 53.9343C160.127 53.9343 159.951 54.8122 159.741 55.9008C159.67 56.2871 159.583 56.6734 159.512 57.0773C159.056 57.007 158.564 56.7788 158.073 56.3574C157.546 55.9009 157.195 55.339 156.984 54.742C157.019 54.5664 157.054 54.3908 157.072 54.2679Z" fill="#F47458"/>
<path d="M159.143 47.1915C159.143 47.1915 157.739 47.0335 156.843 48.1748C155.965 49.3161 155 52.8628 157.212 54.7767C159.407 56.7081 161.584 54.5308 161.918 52.2132C162.234 49.913 162.357 47.1213 159.143 47.1915Z" fill="#F7A491"/>
<path d="M162.55 52.1961C162.286 52.7052 161.847 52.9862 161.566 52.8281C161.285 52.6701 161.268 52.1258 161.531 51.6166C161.795 51.1075 162.234 50.8265 162.515 50.9845C162.795 51.1426 162.813 51.6869 162.55 52.1961Z" fill="#F7A491"/>
<path d="M159.302 46.8234C159.302 46.8234 157.405 50.1946 156.071 50.335C154.719 50.4931 154.543 52.284 154.543 52.284C154.543 52.284 155.035 48.1578 156.369 47.3677C157.704 46.5776 159.302 46.8234 159.302 46.8234Z" fill="#1A1A1A"/>
<path d="M156.422 51.195C156.527 51.792 156.317 52.3363 155.93 52.4241C155.544 52.4944 155.14 52.073 155.035 51.476C154.929 50.879 155.14 50.3347 155.526 50.2469C155.913 50.1767 156.317 50.5981 156.422 51.195Z" fill="#F7A491"/>
<path d="M151.663 74.8103C151.663 74.7752 152.927 69.3848 153.437 68.1908C153.946 66.9969 155.947 61.4485 155.947 61.4485L153.366 60.8866C153.366 60.8866 151.698 65.2235 150.943 67.19C150.188 69.1565 150.504 72.7735 150.469 73.7919C150.469 73.8094 150.364 74.6522 150.364 74.6698C150.346 74.7751 150.311 74.8805 150.311 74.8981C150.276 74.9507 150.188 75.2843 150.188 75.3195C150.188 75.3546 150.101 75.4599 150.083 75.5126C150.048 75.5653 149.978 76.25 149.96 76.373C149.943 76.4783 149.995 76.7417 149.995 76.7417L149.96 77.1982C149.943 77.5318 150.294 77.444 150.294 77.444C150.294 77.602 150.346 77.6898 150.434 77.7249C150.522 77.76 150.627 77.7249 150.645 77.7425C150.662 77.7425 150.662 77.7952 150.662 77.7952C150.645 77.9005 150.768 77.9707 150.838 77.9883C150.908 78.0059 151.049 77.9532 151.084 77.9005C151.119 77.8478 151.154 77.8654 151.154 77.8654C151.224 77.9356 151.523 77.9181 151.593 77.8303C151.663 77.7425 151.716 77.2509 151.751 77.1982C151.786 77.1455 151.839 77.0753 151.856 77.005C151.874 76.9348 152.102 76.4256 152.12 76.3378C152.137 76.25 151.979 75.8989 151.962 75.6882C151.927 75.4775 151.734 75.179 151.681 75.0736C151.646 75.0561 151.663 74.9507 151.663 74.8103Z" fill="#F48C7F"/>
<path d="M160.198 53.3368L158.021 53.2314C158.021 53.2314 158.021 54.0567 158.986 54.1269C160.145 54.2323 160.198 53.3368 160.198 53.3368Z" fill="white"/>
<path d="M148.328 55.0052L147.538 60.2024C147.538 60.2024 150.4 66.3829 152.12 65.8562C153.56 65.3996 152.665 59.939 152.665 59.939C152.665 59.939 151.874 57.0068 152.12 55.5319C152.349 54.0395 148.328 55.0052 148.328 55.0052Z" fill="#F7A491"/>
<path d="M152.12 55.5147C152.348 54.0398 148.328 55.0055 148.328 55.0055L148.257 55.4445C148.38 55.7254 148.521 55.9712 148.696 56.1644C149.592 57.1301 150.996 57.7271 152.225 57.7622C152.103 56.9545 152.032 56.1117 152.12 55.5147Z" fill="#F47458"/>
<path d="M147.661 47.6487C147.555 47.6136 146.748 53.5658 148.258 55.1987C149.768 56.8316 152.735 57.3759 153.789 56.0766C154.965 54.6544 154.895 48.2457 152.542 46.5601C150.189 44.8921 147.661 47.6487 147.661 47.6487Z" fill="#F7A491"/>
<path d="M151.664 43.3997C149.838 43.7684 148.661 44.8921 148.222 45.3662C147.397 45.4716 146.273 45.9281 145.114 47.8595C143.692 50.2299 144.746 52.8636 146.396 54.1629C148.064 55.4446 148.029 56.9371 148.029 56.9371L148.293 56.1645C148.486 55.5851 148.573 54.953 148.503 54.356C148.468 53.9873 148.38 53.5835 148.24 53.2674C147.836 52.4071 149.1 51.8277 149.451 51.1078C149.715 50.5635 149.732 49.2993 150.171 48.3862L150.68 47.6839C150.68 47.6839 151.857 46.7709 153.016 47.0167C154.157 47.2625 153.999 42.9081 151.664 43.3997Z" fill="#13375B"/>
<path d="M149.364 52.1608C149.381 52.8807 149.047 53.4776 148.626 53.4952C148.205 53.4952 147.854 52.9158 147.854 52.1959C147.854 51.476 148.17 50.879 148.591 50.8615C149.012 50.8439 149.364 51.4233 149.364 52.1608Z" fill="#F7A491"/>
<path d="M151.839 53.829L154.121 53.7061C154.121 53.7061 154.121 54.584 153.103 54.6542C151.892 54.7596 151.839 53.829 151.839 53.829Z" fill="white"/>
<path d="M146.888 59.9922C147.099 59.6059 147.485 59.3425 147.924 59.2898C149.838 59.1142 155.123 59.1142 157.827 63.7847C158.248 64.5222 158.564 65.3123 158.775 66.1375L159.337 68.4728L145.431 68.0162L145.448 66.4711C145.343 64.2237 145.817 61.9762 146.888 59.9922Z" fill="#3C8F7C"/>
<path d="M179.897 69.3325L181.916 61.1328C182.057 60.5885 181.723 60.0267 181.161 59.8862C180.617 59.7457 180.055 60.0793 179.915 60.6412L177.808 69.2271L179.897 69.3325Z" fill="#1A1A1A"/>
<path d="M174.683 69.0868C175.262 68.7357 175.719 68.4372 176.035 68.244C176.052 68.2265 177.51 67.5241 177.545 67.5241C177.756 67.4539 177.931 67.3837 177.966 67.3837C178.072 67.3837 178.704 67.173 178.756 67.1379C178.809 67.1203 179.072 67.1203 179.178 67.1203C179.283 67.1203 180.46 66.5233 180.653 66.418C180.846 66.3302 181.197 65.979 181.197 65.979L181.952 65.5401C182.514 65.224 182.005 64.7499 182.005 64.7499C182.268 64.5919 182.338 64.4163 182.303 64.2408C182.25 64.0652 182.11 63.9247 182.092 63.8896C182.092 63.8545 182.163 63.8018 182.163 63.8018C182.338 63.714 182.338 63.4506 182.286 63.3102C182.233 63.1697 182.022 63.0117 181.899 63.0117C181.794 62.9941 181.776 62.9415 181.776 62.9415C181.794 62.7483 181.495 62.3094 181.285 62.2918C181.074 62.2742 180.231 62.6956 180.126 62.6956C180.021 62.6956 179.845 62.6605 179.722 62.7307C179.599 62.7834 178.563 62.9239 178.388 63.0117C178.212 63.0995 177.826 63.6789 177.545 63.9247C177.264 64.1881 176.965 64.8202 176.878 64.9958C176.843 65.066 176.649 65.1713 176.439 65.2767C176.404 65.3118 170.065 67.5944 166.325 68.7181L174.683 69.0868Z" fill="#F7A491"/>
<path d="M154.93 68.2966C154.543 65.9438 154.052 63.4681 153.525 62.3093C152.384 59.7984 148.538 58.306 146.66 59.8687C145.659 60.6939 146.08 64.6621 146.941 68.0859L154.93 68.2966Z" fill="#50BFA5"/>
<path d="M99.0757 54.6542C99.0757 54.6542 94.3701 54.5313 92.7723 55.6024C91.1745 56.6559 91.3677 67.1908 91.3677 67.1908L92.9128 67.4893C92.9128 67.4893 93.4747 74.7408 94.6862 75.1096C95.8977 75.4958 103.799 73.0553 105.449 71.0185C107.1 68.9817 101.973 53.9519 101.973 53.9519L99.0757 54.6542Z" fill="#3C8F7C"/>
<path d="M107.452 46.2962C107.856 45.0321 108.136 41.1868 108.224 39.8699C108.154 39.7822 107.82 39.2203 107.856 38.1141C107.873 37.3416 107.346 36.0598 107.838 36.1476C108.33 36.2354 108.365 37.5698 108.663 37.3416C108.962 37.1133 109.102 34.304 109.541 34.3742C109.998 34.4444 109.682 37.0957 109.945 36.885C110.208 36.6743 110.226 34.2338 110.858 34.3567C111.49 34.462 110.577 37.2186 110.911 37.2889C111.244 37.3415 111.789 35.6033 112.298 35.6911C112.807 35.7789 111.455 38.0439 111.613 37.9385C111.771 37.8156 112.86 36.885 113.035 37.0957C113.246 37.324 110.718 39.9928 110.718 40.6776C110.928 42.451 111.35 45.6466 110.77 47.6658C110.068 50.1239 108.277 55.6021 108.277 55.6021L104.467 54.6891C104.467 54.7242 106.96 47.8063 107.452 46.2962Z" fill="#F7A491"/>
<path d="M109.068 37.8855C109.261 37.9733 109.42 38.0962 109.542 38.2542C109.56 38.2893 110.034 38.7283 109.911 39.4657C109.841 39.0092 109.736 38.5 109.068 37.8855Z" fill="#F48C7F"/>
<path d="M84.6785 56.7079C84.6785 56.7079 84.7838 56.0934 84.2571 55.1452C83.9235 54.5307 83.8357 53.3016 83.4845 53.565C83.1334 53.8284 83.6601 54.917 83.3441 54.8467C83.028 54.7765 81.7989 52.5817 81.5005 52.8275C81.1844 53.0734 82.4837 55.0574 82.1852 55.0048C81.9043 54.9521 80.921 53.0031 80.4821 53.3367C80.0431 53.6703 81.8341 55.514 81.6058 55.7071C81.3775 55.8827 80.2714 54.7063 79.9202 54.9697C79.5691 55.2506 81.5005 56.5323 81.3249 56.4972C81.1493 56.4621 79.9553 56.1461 79.9026 56.3919C79.8324 56.6552 82.3432 57.4454 82.6242 58.0072C82.9051 58.5691 87.2069 64.0999 88.436 64.1175C89.665 64.1175 95.1783 60.3952 95.5821 59.1661C95.986 57.9546 95.4768 56.6728 94.6867 56.4972C93.879 56.3216 88.7344 60.0264 88.4886 59.9738C88.2428 59.9211 84.6785 56.7079 84.6785 56.7079Z" fill="#F7A491"/>
<path d="M83.3971 55.3734C83.2741 55.5314 83.2039 55.7246 83.1512 55.9177C83.1512 55.9529 82.9581 56.5849 83.4322 57.1468C83.2917 56.7254 83.1161 56.2513 83.3971 55.3734Z" fill="#F48C7F"/>
<path d="M96.2859 64.364C96.2859 64.364 101.237 68.2971 101.782 69.1047C102.185 69.7017 100.833 76.4792 100.833 76.4792C100.833 76.4792 98.8669 76.5319 97.9714 75.8471C97.9714 75.8471 98.5158 71.159 98.2699 70.9835C98.0417 70.8079 92.5986 68.3848 92.5986 68.3848L92.9498 65.6106L96.2859 64.364Z" fill="#B75742"/>
<path d="M105.802 50.194C105.802 50.194 106.662 50.352 109.594 53.5476L106.188 60.4831L103.045 54.724L105.802 50.194Z" fill="#9BC1F9"/>
<path d="M100.271 55.0752C100.271 55.0752 102.501 54.5835 103.291 54.1972C104.081 53.811 111.332 70.9127 109.506 71.5096C105.679 72.7738 95.7583 76.1099 95.7583 76.1099C95.7583 76.1099 95.4774 75.1266 95.8285 73.3181C96.4606 70.1928 96.2499 63.2222 96.1094 62.0106C96.0392 61.2908 91.8077 63.3626 91.8077 63.3626L90.1396 57.9547C90.1396 57.9547 94.9681 56.3042 96.5835 55.795C97.0576 55.637 100.271 55.0752 100.271 55.0752Z" fill="#9BC1F9"/>
<path d="M108.54 65.663C107.627 62.8362 101.64 54.7418 101.587 54.654L102.571 53.9868C102.781 54.3029 107.68 61.1857 108.628 64.1706L108.54 65.663Z" fill="#3C8F7C"/>
<path d="M95.5301 70.8951L94.9155 70.1049C94.9506 70.0698 99.1295 66.7338 99.2524 63.029C99.3578 59.2891 96.3553 55.6897 96.3202 55.6545L97.0927 55.0049C97.2332 55.1629 100.394 58.9204 100.271 63.0641C100.13 67.2254 95.7232 70.7546 95.5301 70.8951Z" fill="#3C8F7C"/>
<path d="M99.1995 43.6451C99.1995 43.6451 100.973 42.3282 102.641 44.4703C103.975 46.1735 103.8 45.6292 104.467 46.4895C105.134 47.3323 106.135 47.4026 106.275 48.8248C106.433 50.2294 105.801 50.5279 105.801 50.5279C105.801 50.5279 106.521 51.5639 105.977 52.7578C105.433 53.9518 103.905 55.1106 102.518 55.0931C102.518 55.0931 100.587 56.4451 98.4621 56.129C96.3375 55.813 97.0574 55.7427 96.2146 55.8305C95.3718 55.9183 92.9663 55.0053 93.1595 53.2846C93.1595 53.2846 91.5968 51.7746 92.7908 50.2821C94.0023 48.7897 94.6519 47.7362 95.2313 45.8399C95.8108 43.9436 98.2162 43.3115 99.1995 43.6451Z" fill="#1A1A1A"/>
<path d="M101.57 53.3723C101.57 53.3723 101.763 55.8656 102.027 56.0763C102.29 56.287 102.659 56.6381 102.378 57.2702C102.097 57.9023 100.569 57.6916 99.8321 57.4107C99.1297 57.1473 98.6381 56.603 98.6381 56.603L98.5679 52.6173L101.57 53.3723Z" fill="#F7A491"/>
<path d="M100.692 54.5136C100.2 54.3907 99.3224 54.1624 98.5674 53.1792L98.5498 52.6173L101.57 53.3723C101.57 53.3723 101.622 53.9869 101.693 54.6189C101.289 54.6541 100.92 54.5663 100.692 54.5136Z" fill="#F48C7F"/>
<path d="M97.3209 50.4397C97.3209 50.4397 97.0926 48.9823 96.2147 49.3686C95.3368 49.7549 96.2674 51.897 97.0048 51.739C97.7598 51.581 97.3209 50.4397 97.3209 50.4397Z" fill="#F7A491"/>
<path d="M100.043 44.7689C100.043 44.7689 101.447 44.5933 102.29 45.6117C103.133 46.63 104.239 49.6852 103.291 51.9677C102.325 54.2503 100.763 53.8816 100.113 53.7411C99.4632 53.5831 98.1814 53.2319 97.3386 51.283C96.4783 49.3164 96.4432 44.7338 100.043 44.7689Z" fill="#F7A491"/>
<path d="M128.768 68.0862L131.367 80.4472L126.89 80.0082L124.748 68.7007L128.768 68.0862Z" fill="#F7A491"/>
<path d="M129.541 68.4374L124.747 68.7008C124.747 68.7008 124.396 65.3823 124.308 63.802C124.203 61.8882 124.238 59.3949 124.484 59.4301C125.151 59.553 126.047 59.8514 126.591 60.5538C128.522 62.9592 129.541 68.4374 129.541 68.4374Z" fill="#5184CE"/>
<path d="M126.381 63.3801C126.503 63.9595 129.541 80.1306 129.541 80.1306C122.36 84.0812 116.864 80.7101 116.864 80.7101C116.864 80.7101 117.145 69.8415 116.776 68.3315C116.53 67.3307 115.652 60.7639 116.285 60.5532C117.11 60.2723 118.356 59.8509 119.392 59.6929C120.288 59.5524 123.747 59.3242 124.379 59.4997C124.379 59.4822 125.906 60.9395 126.381 63.3801Z" fill="#EAFCFC"/>
<path d="M123.799 47.9642C123.799 47.9642 126.713 47.9116 126.468 50.3346C126.468 50.3346 128.627 51.1774 127.188 53.1264C127.188 53.1264 128.733 55.2158 126.046 57.235C126.046 57.235 125.326 60.0443 122.306 58.7098C122.306 58.7098 121.411 59.3771 120.164 58.4816C118.918 57.5861 118.76 57.0594 118.76 57.0594C118.76 57.0594 116.021 56.5326 116.389 54.0218C116.389 54.0218 114.949 52.7927 117.127 51.2476C117.127 51.2476 117.092 47.7886 120.024 48.2452C120.041 48.2276 121.762 45.5939 123.799 47.9642Z" fill="#13375B"/>
<path d="M119.251 53.6352C119.181 54.2498 118.777 54.7063 118.355 54.6536C117.934 54.6009 117.671 54.0566 117.741 53.4421C117.811 52.8275 118.215 52.371 118.636 52.4237C119.058 52.4764 119.339 53.0207 119.251 53.6352Z" fill="#F7A491"/>
<path d="M126.081 55.4968C125.818 56.0587 125.309 56.3748 124.922 56.1992C124.536 56.0236 124.431 55.4266 124.694 54.8648C124.958 54.3029 125.467 53.9868 125.853 54.1624C126.239 54.338 126.327 54.935 126.081 55.4968Z" fill="#F7A491"/>
<path d="M122.57 57.3754C122.57 57.4106 122.816 59.0084 122.939 59.8336C122.992 60.1496 122.816 60.4481 122.518 60.5535C121.727 60.852 120.182 61.2207 119.217 60.2023C119.129 60.1145 119.094 59.974 119.094 59.8511L119.498 56.1464L122.57 57.3754Z" fill="#F7A491"/>
<path d="M122.816 58.973C121.973 59.3242 119.55 59.0257 119.357 57.4981L119.497 56.1637L122.57 57.3752C122.57 57.3928 122.746 58.4814 122.816 58.973Z" fill="#F48C7F"/>
<path d="M123.36 49.8425C123.36 49.8425 122.078 49.5616 120.866 50.3166C119.637 51.0716 117.653 54.0565 119.321 56.6551C120.972 59.2537 123.799 57.972 124.782 55.9177C125.765 53.8634 126.187 50.8082 123.36 49.8425Z" fill="#F7A491"/>
<path d="M122.57 56.2517L120.867 56.1464C120.867 56.1464 120.867 56.796 121.622 56.8662C122.535 56.954 122.57 56.2517 122.57 56.2517Z" fill="white"/>
<path d="M125.537 51.2827C125.537 51.2827 124.29 50.6155 123.377 50.7032C122.447 50.791 119.444 52.9858 119.005 52.6171C118.566 52.2484 119.128 50.317 119.48 50.036C119.831 49.7551 121.218 48.9123 121.341 48.8948C121.464 48.8772 122.728 48.8947 122.938 48.965C123.149 49.0177 124.729 49.7727 124.729 49.7727L125.537 51.2827Z" fill="#13375B"/>
<path d="M107.522 81.5885C107.54 81.5183 107.61 81.5183 107.68 81.5007C108.312 81.4656 108.944 81.4129 109.576 81.3076C109.682 81.29 109.787 81.2549 109.875 81.2198C110.05 81.1496 110.226 81.132 110.402 81.1847C110.507 81.2022 110.595 81.2022 110.7 81.2022C111.016 81.1847 111.929 80.8511 112.386 80.7633C112.491 80.7457 112.579 80.6579 112.596 80.5526C113 78.709 113.861 74.6003 113.948 73.2484C114.054 71.5276 115.002 63.7318 115.002 63.7318L118.197 64.5219C118.197 64.5219 117.074 70.281 116.793 73.0728C116.582 75.2149 114.58 79.8327 113.948 81.1671C113.65 82.1504 112.912 82.203 112.754 82.2206C112.649 82.2382 112.561 82.2908 112.509 82.3611C112.403 82.5015 112.263 82.6244 112.122 82.7298C112.017 82.8 111.929 82.9054 111.859 83.0107C111.736 83.2039 111.613 83.4146 111.508 83.6253C111.437 83.7657 111.35 83.8184 111.227 83.7833C111.104 83.7482 111.034 83.6604 111.034 83.5024C111.034 83.2741 111.104 83.0634 111.209 82.8703C111.315 82.6771 111.297 82.5718 111.174 82.4137C111.104 82.3259 111.016 82.2381 110.928 82.1504C110.823 82.0801 110.735 82.0275 110.595 82.045C110.366 82.1152 110.138 82.1679 109.91 82.203L109.717 82.2557L109.611 82.2733C109.594 82.2733 109.26 82.3259 109.137 82.3259C109.05 82.3259 108.892 82.3435 108.769 82.3435C108.646 82.3611 108.4 82.3084 108.4 82.3084C108.295 82.3084 108.189 82.2733 108.101 82.203C108.066 82.1679 108.031 82.1328 108.049 82.0801C108.066 82.0275 108.101 82.0099 108.154 81.9924C108.224 81.9748 108.628 81.9221 108.611 81.9046C108.488 81.9046 108.119 81.9046 108.014 81.9046C107.856 81.9046 107.715 81.8519 107.61 81.7465C107.557 81.7114 107.504 81.6587 107.522 81.5885Z" fill="#F7A491"/>
<path d="M112.86 68.4194L117.496 70.6669C117.496 70.6669 118.216 67.2606 118.76 65.1536C119.234 63.3451 116.916 60.1144 116.144 60.5534C114.441 61.5366 112.86 68.4194 112.86 68.4194Z" fill="#5184CE"/>
<path d="M144.22 62.4147L185.482 64.1705C185.482 64.1705 181.882 76.2154 181.794 76.8124C181.707 77.4094 168.169 84.8014 164.763 84.7136C161.357 84.6258 153.42 81.7814 151.717 81.2722C150.014 80.763 145.572 77.304 145.835 75.1795C146.116 73.0549 144.22 62.4147 144.22 62.4147Z" fill="#F7CC7F"/>
<path d="M156.088 68.5254H145.009C144.728 68.5254 144.517 68.2972 144.517 68.0338V67.0856C144.517 66.8047 144.745 66.594 145.009 66.594H156.088C156.369 66.594 156.58 66.8223 156.58 67.0856V68.0338C156.597 68.2972 156.369 68.5254 156.088 68.5254Z" fill="#EAB054"/>
<path d="M160.881 45.5415L166.465 47.8417L166.149 46.6828L164.059 45.5415C164.059 45.5415 162.356 45.208 162.181 45.1202C162.04 45.0324 160.881 45.5415 160.881 45.5415Z" fill="#F7CC7F"/>
<path opacity="0.6" d="M187.534 60.2547L143.885 56.5148V59.4295C143.885 61.0799 145.149 62.4495 146.764 62.5021L185.427 64.0648C186.323 64.0999 187.183 63.6961 187.693 62.9411C188.131 62.309 188.325 61.4135 187.534 60.2547Z" fill="#C5DDF9"/>
<path opacity="0.7" d="M143.885 56.5145V56.1107L187.376 60.0438L187.534 60.2545L143.885 56.5145Z" fill="#C5DDF9"/>
<path opacity="0.2" d="M153.946 62.8009L157.914 62.9765L161.18 58.0075L157.317 57.674L153.946 62.8009Z" fill="white"/>
<path opacity="0.2" d="M161.004 63.0995L164.182 58.2534L162.707 58.1305L159.494 63.0292L161.004 63.0995Z" fill="white"/>
<path d="M84.7659 62.5726L134.614 63.0643L135.053 78.8667C135.053 78.8667 129.223 87.3297 128.521 87.2419C127.819 87.1541 112.929 84.7662 111.595 84.854C110.26 84.9418 98.5842 79.2178 98.0399 79.3232C97.4956 79.4461 93.8435 77.4796 93.8435 77.4796L87.9089 73.3007L82.0269 67.2431L84.7659 62.5726Z" fill="#F7CC7F"/>
<path d="M94.8619 67.5413H83.7827C83.5017 67.5413 83.291 67.313 83.291 67.0496V66.1015C83.291 65.8206 83.5193 65.6099 83.7827 65.6099H94.8619C95.1428 65.6099 95.3535 65.8381 95.3535 66.1015V67.0496C95.3535 67.3306 95.1253 67.5413 94.8619 67.5413Z" fill="#EAB054"/>
<path d="M102.237 51.1068L100.517 51.4404C100.517 51.4404 100.675 52.0901 101.447 51.9672C102.36 51.8091 102.237 51.1068 102.237 51.1068Z" fill="white"/>
<path d="M96.8819 49.4567C96.8819 49.4567 100.78 47.6658 101.166 44.8741C101.552 42.0823 97.9705 44.7511 97.9705 44.7511L96.5132 46.1382L96.8819 49.4567Z" fill="#1A1A1A"/>
<path d="M145.307 62.0637C145.307 62.0637 146.027 62.5553 146.94 62.5378C146.94 62.5378 145.729 62.9065 145.693 62.8889C145.658 62.8538 145.044 62.3622 145.061 62.3622C145.061 62.3271 145.307 62.0637 145.307 62.0637Z" fill="#F7CC7F"/>
<path d="M149.064 44.0134L153.945 44.3294C153.945 44.3294 153.155 43.0126 152.804 43.0126C152.453 43.0126 150.24 43.0126 150.24 43.0126L149.064 44.0134Z" fill="#F7CC7F"/>
<path d="M318.791 116.252H1.20963C0.541151 116.252 0 115.711 0 115.042C0 114.374 0.541151 113.833 1.20963 113.833H318.791C319.459 113.833 320 114.374 320 115.042C319.99 115.711 319.459 116.252 318.791 116.252Z" fill="#183658"/>
</svg>
