<svg width="229" height="215" viewBox="0 0 229 215" fill="none" xmlns="http://www.w3.org/2000/svg">
<path d="M217.761 183.594C217.761 96.6614 14.5147 132.746 14.5147 32.7533" stroke="#75BF7A" stroke-width="2.34319" stroke-linecap="round" stroke-linejoin="round" stroke-dasharray="7.03 7.03"/>
<path d="M215.797 181.485C219.237 181.489 222.535 182.858 224.968 185.29C227.401 187.723 228.769 191.021 228.773 194.462C228.778 197.273 227.859 200.008 226.159 202.248C226.159 202.248 225.805 202.714 225.748 202.781L215.797 214.516L205.841 202.775C205.79 202.712 205.434 202.248 205.434 202.248L205.433 202.244C203.734 200.006 202.816 197.272 202.82 194.462C202.824 191.021 204.193 187.723 206.626 185.29C209.058 182.858 212.356 181.489 215.797 181.485ZM215.797 199.18C216.73 199.18 217.642 198.904 218.418 198.385C219.194 197.867 219.799 197.13 220.156 196.267C220.514 195.405 220.607 194.456 220.425 193.541C220.243 192.626 219.793 191.785 219.134 191.125C218.474 190.465 217.633 190.016 216.717 189.834C215.802 189.652 214.853 189.745 213.991 190.102C213.129 190.459 212.392 191.064 211.873 191.84C211.355 192.616 211.078 193.528 211.078 194.462C211.08 195.713 211.577 196.912 212.462 197.797C213.347 198.681 214.546 199.179 215.797 199.18Z" fill="#75BF7A"/>
<path d="M14.7519 0.122314C18.1923 0.126373 21.4906 1.49485 23.9233 3.92754C26.356 6.36024 27.7244 9.65852 27.7285 13.0989C27.7326 15.9103 26.8143 18.6455 25.1143 20.8848C25.1143 20.8848 24.7604 21.3508 24.7026 21.418L14.7519 33.1535L4.79654 21.4121C4.74464 21.3496 4.38955 20.8848 4.38955 20.8848L4.38837 20.8813C2.68926 18.6429 1.77133 15.909 1.77536 13.0989C1.77942 9.65852 3.1479 6.36024 5.5806 3.92754C8.01329 1.49485 11.3116 0.126373 14.7519 0.122314ZM14.7519 17.8176C15.6852 17.8176 16.5975 17.5409 17.3735 17.0224C18.1495 16.5039 18.7543 15.7669 19.1115 14.9047C19.4686 14.0424 19.5621 13.0936 19.38 12.1783C19.1979 11.2629 18.7485 10.4221 18.0886 9.76221C17.4287 9.10228 16.5879 8.65286 15.6725 8.47079C14.7572 8.28871 13.8084 8.38216 12.9461 8.73931C12.0839 9.09646 11.3469 9.70128 10.8284 10.4773C10.3099 11.2533 10.0332 12.1656 10.0332 13.0989C10.0347 14.3499 10.5324 15.5492 11.417 16.4338C12.3016 17.3184 13.5009 17.8161 14.7519 17.8176Z" fill="#75BF7A"/>
</svg>
