<svg width="320" height="156" viewBox="0 0 320 156" fill="none" xmlns="http://www.w3.org/2000/svg">
<path d="M93.6555 94.5959C93.4614 93.8199 92.7501 92.8499 92.0549 92.4295L87.8353 89.9236C87.1402 89.5194 85.9276 89.0829 85.1354 88.9536L80.2853 88.1776C79.4932 88.0483 78.5878 87.3369 78.2645 86.6094L77.6825 85.2837C77.3591 84.5562 76.4699 83.7478 75.7101 83.4892L73.2365 82.6646C72.4767 82.406 71.3935 81.7431 70.8276 81.1611L68.8876 79.2049C68.3218 78.6391 67.2062 78.1702 66.3979 78.1702H52.3488C51.5404 78.1702 50.6674 77.5559 50.3764 76.796L49.6489 74.8398C49.374 74.0961 48.5172 73.2554 47.7573 72.9968L44.7664 71.9621C44.0066 71.7034 43.2467 70.8465 43.0689 70.0544L42.9719 69.6502C42.7941 68.8742 42.0665 67.9203 41.3552 67.5323L37.4428 65.4144C36.7314 65.0264 36.4404 64.1372 36.7799 63.4097L38.0248 60.8068C38.3643 60.0793 39.2858 59.3356 40.078 59.1578L46.9651 57.5734C47.7412 57.3956 48.792 57.7674 49.2932 58.398L50.2309 59.5943C50.7321 60.2248 51.7667 60.5805 52.5428 60.3865L53.7068 60.0955C54.4828 59.9015 55.2427 59.0931 55.3882 58.301L55.5983 57.1693C55.7438 56.3771 56.4067 55.3747 57.0695 54.9221L66.8829 48.3097C67.5457 47.8571 67.9338 46.8547 67.7236 46.0787L66.7051 42.1663C66.5111 41.3903 66.9961 40.7598 67.8044 40.7759L82.5972 40.9861C83.4056 41.0023 84.0038 40.3556 83.9391 39.5472L83.4217 32.7248C83.3571 31.9326 82.6781 31.1081 81.902 30.8979L80.9805 30.6554C80.2045 30.4452 79.4932 29.6207 79.4123 28.8285L79.2345 27.2441C79.1536 26.452 78.41 25.8214 77.6178 25.8699L70.2941 26.2256C69.4858 26.258 68.5643 26.8885 68.2086 27.616L67.4487 29.2165C67.1092 29.944 66.1877 30.4129 65.3955 30.2674L60.2706 29.3135C59.4784 29.168 58.8964 28.392 58.9772 27.5998L59.1874 25.5143C59.2682 24.7221 59.9473 23.8329 60.7071 23.5581L64.7165 22.0707C65.4764 21.7959 66.3656 20.9713 66.7212 20.26L70.181 13.1465C70.5366 12.419 70.1648 11.837 69.3564 11.837H51.3626C50.5542 11.837 49.4225 12.2897 48.8405 12.8393L46.7226 14.8279C46.1406 15.3776 45.0089 15.7656 44.2168 15.6847L6.19196 11.9825C5.39978 11.9017 4.83393 12.4837 4.93094 13.292L5.78779 19.6295C5.90096 20.4217 5.31894 21.0683 4.52676 21.0683H1.45503C0.64668 21.0683 0 21.7312 0 22.5234V26.84C0 27.6483 0.549678 28.6507 1.22869 29.071L3.50824 30.5099C4.18725 30.9464 5.39978 31.2859 6.19196 31.2859H7.76016C8.56851 31.2859 9.24753 30.623 9.29603 29.8309L9.37686 28.2465C9.42536 27.4381 10.1205 26.84 10.9127 26.8885L19.7237 27.4543C20.5321 27.5028 21.583 28.0687 22.068 28.6992L24.5253 31.8841C25.0104 32.5146 25.3175 33.6948 25.2044 34.487L24.6223 38.5934C24.5092 39.3856 23.7655 40.1616 22.9895 40.3071L20.6129 40.7598C19.8207 40.9053 19.1741 41.6813 19.1579 42.4896L18.9477 57.7836C18.9316 58.592 19.4004 59.6913 19.9824 60.2572L24.8649 64.9618C25.4469 65.5114 25.8025 66.627 25.6732 67.4191L25.3984 69.0359C25.269 69.828 25.7864 70.6525 26.5624 70.8627L36.4728 73.5788C37.2488 73.789 38.0733 74.5973 38.2996 75.3572L38.72 76.7637C38.9463 77.5397 39.787 78.154 40.5953 78.154H42.1635C42.9719 78.154 43.7317 78.8007 43.8773 79.5929L44.1198 80.9994C44.2653 81.7916 45.0251 82.4383 45.8335 82.4383H48.404C49.2124 82.4383 49.9722 83.085 50.1177 83.8772L50.6189 86.7387C50.7644 87.5309 50.2147 88.1776 49.4064 88.1776H49.083C48.2747 88.1776 47.5472 88.8243 47.4663 89.6326L46.8035 95.4689C46.7065 96.2611 47.143 97.3281 47.7573 97.8455L52.4943 101.726C53.1086 102.227 53.626 103.31 53.626 104.102V109.922C53.626 110.731 54.1433 111.781 54.7738 112.266L57.9587 114.724C58.5892 115.209 59.1551 116.276 59.2197 117.068L60.7556 139.104C60.8041 139.896 61.3861 140.947 62.0166 141.432L63.6818 142.677C64.3285 143.162 64.8459 144.212 64.8459 145.005V150.825C64.8459 151.633 65.444 152.538 66.1877 152.846L72.4767 155.465C73.2204 155.772 73.9802 155.384 74.1742 154.608L75.2089 150.453C75.4029 149.677 75.0472 148.626 74.4167 148.141L73.2204 147.203C72.5899 146.702 72.121 145.651 72.1695 144.843L72.9779 132.54C73.0264 131.731 73.5275 130.616 74.0934 130.05L86.5258 117.408C87.0917 116.842 87.5443 115.71 87.5443 114.902V108.58C87.5443 107.772 87.997 106.64 88.5467 106.058L93.7848 100.448C94.3345 99.8663 94.6255 98.7508 94.4476 97.9586L93.6555 94.5959ZM76.0658 14.0195C76.4538 14.7147 76.5993 15.9272 76.3891 16.7033L75.3059 20.648C75.0957 21.424 75.5646 22.1515 76.3568 22.2809L80.1398 22.8791C80.932 23.0084 82.0637 22.6689 82.6457 22.1192L83.0014 21.7959C83.5834 21.2462 84.0684 20.1468 84.0684 19.3385V16.9296C84.0684 16.1212 83.4702 15.2159 82.7266 14.8926L79.8973 13.6639C79.1698 13.3405 78.8141 12.4837 79.1375 11.74L79.3962 11.1256C79.7195 10.382 80.5925 9.57361 81.3524 9.29877L89.7915 6.35638C90.5514 6.0977 91.6022 5.38635 92.1358 4.77201L92.7016 4.12533C93.2351 3.52715 93.4776 2.39546 93.2351 1.63561L93.0088 0.875759C92.7824 0.0997432 92.0064 -0.223596 91.2951 0.164412L86.7683 2.54096C86.057 2.9128 84.8283 3.20381 84.0199 3.18764L76.0981 3.05831C75.2897 3.04214 74.4491 3.67265 74.2389 4.4325L73.4467 7.13239C73.2204 7.90841 73.3497 9.10476 73.7377 9.81611L76.0658 14.0195ZM116.774 4.62651L103.776 1.26377C103 1.06976 101.852 1.31227 101.222 1.81345L94.8033 6.92222C94.1728 7.4234 93.0411 8.03774 92.2813 8.28025L87.9485 9.68678C87.1887 9.92928 86.5581 10.77 86.5581 11.5622C86.5581 12.3543 87.221 12.9848 88.0132 12.9848H90.2442C91.0526 12.9848 91.5376 13.6154 91.3436 14.3914L89.4844 21.6989C89.2904 22.4749 89.355 23.7359 89.6299 24.4796L91.2142 28.8447C91.4891 29.6045 92.3621 30.2189 93.1704 30.2189H94.6901C95.4985 30.2189 96.4847 29.653 96.905 28.974L102.127 20.4378C102.547 19.7588 103.517 18.999 104.277 18.7565L116.774 14.8279C117.534 14.5854 118.165 13.7285 118.165 12.9363V6.43721C118.181 5.64503 117.55 4.82051 116.774 4.62651ZM129.223 21.8767L130.484 19.9205C130.92 19.2415 130.662 18.4493 129.918 18.1583L127.477 17.1883C126.733 16.8973 125.795 17.2206 125.407 17.9158L124.518 19.484C124.13 20.1792 124.389 21.0522 125.1 21.424L127.137 22.4587C127.849 22.8144 128.786 22.5557 129.223 21.8767ZM140.459 35.2145C140.912 35.8773 141.655 35.8612 142.108 35.1983L142.544 34.5355C142.981 33.8726 142.884 32.8541 142.318 32.2882L141.283 31.2536C140.718 30.6877 139.909 30.7847 139.489 31.4637L139.473 31.4961C139.052 32.1751 139.085 33.2744 139.554 33.9373L140.459 35.2145ZM145.649 38.8844H145.778C146.586 38.8844 147.589 38.3347 148.041 37.6557L148.575 36.8473C149.011 36.1683 149.351 34.972 149.318 34.1636L149.108 29.0548C149.076 28.2465 148.462 27.8747 147.734 28.2142L146.99 28.5698C146.263 28.9093 145.665 29.847 145.665 30.6554V32.3691C145.665 33.1774 145.341 34.2445 144.937 34.7618C144.533 35.2791 144.21 36.3462 144.21 37.1545V37.4294C144.194 38.2215 144.84 38.8844 145.649 38.8844ZM319.799 23.4611L317.423 19.7427C316.986 19.0636 315.984 18.5625 315.176 18.611L301.967 19.4516C301.159 19.5002 300.06 19.0636 299.51 18.4816L296.374 15.1836C295.824 14.6015 294.724 14.0195 293.932 13.874L275.55 10.7053C274.758 10.576 273.465 10.5921 272.689 10.7538L258.219 13.8255C257.427 13.9872 256.263 13.7285 255.633 13.2435L248.535 7.89224C247.889 7.40723 246.708 7.01922 245.916 7.01922H218.481C217.673 7.01922 216.476 7.3749 215.797 7.81141L211.384 10.673C210.705 11.1095 210.171 12.128 210.203 12.9202L210.3 17.0428C210.317 17.8511 209.702 18.3361 208.926 18.1421L204.205 16.9619C203.429 16.7679 202.379 17.1236 201.877 17.7541L198.547 21.9414C198.046 22.5719 196.979 23.0892 196.187 23.0892H187.44C186.632 23.0892 185.63 22.5395 185.193 21.8605L181.96 16.7679C181.523 16.0889 180.553 15.3291 179.793 15.0704L176.204 13.8417C175.444 13.583 174.199 13.583 173.456 13.8579L164.709 16.9943C163.95 17.2691 162.899 17.9804 162.381 18.5786L157.095 24.6089C156.561 25.2071 156.545 26.2095 157.046 26.84L158.841 29.071C159.342 29.7015 160.409 30.2027 161.217 30.2027H164.612C165.421 30.2027 166.488 29.7015 167.005 29.0872L171.128 24.2047C171.645 23.5904 172.712 23.2186 173.488 23.3964L174.07 23.5257C174.862 23.6874 175.444 24.4796 175.363 25.2879L175.283 26.1448C175.202 26.937 175.654 28.0202 176.253 28.5375L176.269 28.5537C176.883 29.071 176.802 29.8147 176.091 30.2027L174.539 31.0434C173.828 31.4314 173.181 32.3853 173.1 33.1936L172.906 34.972C172.825 35.7642 172.098 36.4593 171.289 36.4917L161.201 36.9767C160.393 37.009 159.568 36.4108 159.358 35.651L159.083 34.6486C158.873 33.8726 158.032 33.2421 157.24 33.2421H155.704C154.896 33.2421 153.975 33.8403 153.635 34.5678L152.277 37.5587C151.938 38.2862 151.064 39.1269 150.305 39.4017L149.771 39.6119C149.027 39.9029 147.993 40.6466 147.492 41.2609L146.247 42.7806C145.746 43.395 145.6 44.5105 145.94 45.238L146.942 47.3882C147.281 48.1157 146.91 48.7948 146.117 48.9079L142.496 49.3929C141.704 49.4899 141.203 50.2175 141.38 51.0096L142.253 54.6957C142.431 55.4717 143.223 56.2639 144.016 56.4418L147.96 57.3309C148.736 57.5088 149.383 56.9914 149.383 56.1992V55.0029C149.383 54.1945 149.949 53.2084 150.628 52.788L153.522 51.042C154.201 50.6216 155.413 50.3791 156.206 50.4923L159.148 50.9288C159.94 51.042 160.894 51.721 161.266 52.4323L162.495 54.8089C162.866 55.5202 162.769 56.6358 162.284 57.2663L161.977 57.6704C161.492 58.3171 161.508 59.3518 162.01 59.9823L162.252 60.2733C162.753 60.9038 163.659 60.9847 164.273 60.4673L166.504 58.5758C167.118 58.0585 167.329 57.0399 166.973 56.3286L165.194 52.7557C164.839 52.0443 165.081 51.0743 165.728 50.6055L166.455 50.0881C167.102 49.6193 168.008 49.7809 168.444 50.4438L171.629 55.2131C172.082 55.8759 173.052 56.1992 173.811 55.9244L177.239 54.6796C177.999 54.4047 179.05 54.6796 179.567 55.2777L183.981 60.2895C184.514 60.8877 184.789 62.0194 184.611 62.7954L184.255 64.2504C184.061 65.0264 183.269 65.8024 182.493 65.9641L171.289 68.2922C170.497 68.4538 169.252 68.3568 168.493 68.082L164.37 66.53C163.626 66.2551 162.608 65.4953 162.107 64.8648L159.261 61.1787C158.776 60.5482 157.709 60.0632 156.917 60.1278L149.545 60.6128C148.736 60.6613 147.589 61.1302 146.958 61.6314L132.408 73.5141C131.793 74.0153 131.195 75.0823 131.098 75.8907L130.613 79.6899C130.516 80.4821 129.95 81.5814 129.352 82.115L128.415 82.9718C127.816 83.5215 127.396 84.6047 127.444 85.413L127.897 91.3463C127.962 92.1385 128.512 93.2217 129.142 93.7229L136.66 99.931C137.274 100.448 138.438 100.853 139.246 100.853H152.617C153.425 100.853 154.573 101.273 155.187 101.806L157.596 103.86C158.21 104.377 158.744 105.46 158.776 106.268L158.97 110.391C159.003 111.199 159.601 112.202 160.28 112.622L164.144 115.031C164.823 115.451 165.34 116.454 165.275 117.262L164.273 131.505C164.224 132.297 164.677 133.364 165.308 133.866L168.169 136.161C168.8 136.662 169.269 137.729 169.236 138.522L168.687 149.839C168.654 150.647 169.269 151.342 170.077 151.407L177.966 152.037C178.759 152.102 179.89 151.682 180.456 151.116L188.685 142.887C189.251 142.321 189.72 141.205 189.72 140.397V131.99C189.72 131.182 190.221 130.115 190.851 129.614L195.96 125.459C196.575 124.958 197.157 123.89 197.221 123.082L198.159 112.784C198.24 111.992 198.725 110.844 199.258 110.229L208.813 99.3813C209.347 98.7831 209.783 97.6353 209.783 96.8269V92.5427C209.783 91.7343 209.12 91.0876 208.328 91.1038L196.332 91.2493C195.524 91.2655 194.845 90.6026 194.812 89.8105L194.602 85.4292C194.57 84.6208 194.036 83.5538 193.422 83.0365L190.674 80.7246C190.059 80.2072 189.51 79.1241 189.445 78.3319L189.17 75.0661C189.105 74.274 189.687 73.4656 190.463 73.2716L193.454 72.5602C194.23 72.3824 195.346 72.6896 195.928 73.2393L200.002 77.1678C200.584 77.7175 201.021 78.8331 200.972 79.6414L200.633 85.51C200.584 86.3184 201.166 87.1752 201.926 87.4339L203.785 88.0483C204.545 88.3069 205.596 87.9997 206.113 87.3854L212.305 80.0132C212.822 79.3989 212.725 78.4774 212.111 77.9762L206.501 73.4656C205.871 72.9644 205.79 72.0429 206.307 71.4286L208.037 69.3754C208.554 68.761 209.605 68.4053 210.397 68.5993L211.852 68.955C212.628 69.149 213.582 69.8765 213.97 70.5717L215.49 73.3363C215.878 74.0476 216.848 74.6296 217.656 74.6458L222.28 74.759C223.089 74.7751 223.735 75.4542 223.735 76.2463V79.8516C223.735 80.6599 224.382 81.3713 225.19 81.4521L229.313 81.8563C230.105 81.9371 230.638 82.6485 230.493 83.4245L229.491 88.7919C229.345 89.5841 229.636 90.732 230.153 91.3463L236.022 98.5245C236.523 99.1388 237.606 99.6562 238.399 99.6562H239.433C240.242 99.6562 241.147 99.058 241.47 98.3143L249.069 80.4983C249.376 79.7546 250.298 79.1564 251.106 79.1564H251.963C252.771 79.1564 253.87 79.6414 254.42 80.2234L258.931 85.025C259.48 85.607 259.933 86.7387 259.933 87.5471V93.0115C259.933 93.8199 260.337 94.9839 260.822 95.6306L263.506 99.1227C263.991 99.7532 264.864 99.8178 265.43 99.252L266.254 98.4436C266.82 97.8778 266.804 96.9886 266.19 96.4713L264.977 95.4204C264.363 94.9031 263.926 93.8199 264.007 93.0115L264.072 92.3325C264.153 91.5403 264.864 90.8775 265.672 90.8775H265.85C266.659 90.8775 267.548 91.4918 267.823 92.2355L268.146 93.0924C268.437 93.836 269.229 94.1109 269.908 93.6905L273.255 91.6373C273.934 91.217 274.5 90.2146 274.5 89.4224V84.9442C274.5 84.1358 273.934 83.1496 273.239 82.7455L271.46 81.6946C270.765 81.2904 270.312 80.3042 270.442 79.5121L271.008 75.9553C271.137 75.1631 271.897 74.5973 272.689 74.6781L276.65 75.1308C277.442 75.2278 278.38 74.7105 278.703 73.9668L281.419 68.082C281.759 67.3545 281.613 66.2551 281.112 65.6246L277.975 61.7284C277.474 61.0979 277.167 59.95 277.313 59.1578L278.024 55.0191C278.153 54.2269 278.929 53.5802 279.721 53.5802H282.47C283.278 53.5802 283.893 52.9173 283.86 52.1252L282.971 34.7133C282.923 33.9049 283.424 32.8541 284.054 32.3691L287.061 30.0572C287.692 29.5722 288.872 29.2165 289.664 29.2812L297.554 29.9117C298.346 29.9764 299.057 30.6877 299.106 31.4799L299.607 39.0137C299.655 39.8221 300.302 40.7436 301.03 41.0669L302.323 41.6489C303.051 41.9884 303.907 41.6489 304.215 40.9053L308.58 30.5099C308.887 29.7662 309.711 28.8285 310.406 28.4243L315.434 25.4496C316.13 25.0454 317.342 24.7059 318.15 24.7059H319.185C319.929 24.6898 320.236 24.1401 319.799 23.4611ZM289.486 59.8045C289.195 60.5482 289.163 61.7769 289.422 62.5367L290.279 65.0426C290.537 65.8025 291.41 66.4815 292.202 66.5461L293.156 66.627C293.948 66.6916 294.967 66.2066 295.42 65.5276L297.15 62.9409C297.602 62.278 297.958 61.0655 297.958 60.2733V51.4461C297.958 50.6378 297.521 49.4899 297.004 48.8918L295.581 47.2751C295.048 46.6769 293.997 46.3859 293.237 46.6607L292.138 47.0487C291.378 47.3074 291.022 48.1319 291.362 48.8594L292.089 50.4761C292.413 51.2036 292.445 52.4162 292.154 53.1599L289.486 59.8045ZM207.455 123.632L207.083 123.389C206.404 122.953 205.45 123.131 204.949 123.761L199.032 131.343C198.531 131.974 198.385 133.09 198.709 133.833L199.63 136.016C199.937 136.759 200.843 137.471 201.635 137.616L202.104 137.697C202.896 137.843 204.076 137.584 204.739 137.131L207.503 135.191C208.166 134.722 208.7 133.704 208.7 132.896V125.863C208.684 125.071 208.134 124.068 207.455 123.632ZM265.963 111.555H269.73C270.539 111.555 271.185 110.892 271.185 110.1V108.451C271.185 107.643 270.522 106.98 269.73 106.98L267.241 106.947C266.432 106.931 265.64 106.285 265.462 105.509L265.074 103.763C264.896 102.987 264.169 102.065 263.441 101.726L259.4 99.8178C258.672 99.4783 257.734 99.7532 257.298 100.432L257.055 100.82C256.635 101.499 256.457 102.679 256.684 103.455L257.686 106.964C257.912 107.74 258.672 108.661 259.383 109.017L263.199 110.925C263.926 111.264 265.171 111.555 265.963 111.555ZM286.253 107.044L285.089 104.652C284.733 103.924 283.876 103.649 283.165 104.021L278.929 106.252C278.218 106.624 278.008 107.481 278.46 108.144L279.269 109.34C279.722 110.003 280.724 110.731 281.484 110.957L287.562 112.719C288.339 112.945 289.486 112.784 290.117 112.347C290.747 111.927 290.747 111.183 290.101 110.714L288.08 109.243C287.417 108.742 286.592 107.772 286.253 107.044ZM289.971 140.801L292.025 137.487C292.445 136.808 292.849 135.595 292.898 134.787L293.447 127.415C293.512 126.623 293.237 125.378 292.849 124.683L288.339 116.438C287.951 115.726 286.997 115.306 286.221 115.5L285.849 115.597C285.073 115.791 284.426 116.599 284.426 117.391V117.569C284.426 118.378 283.941 119.024 283.327 119.024C282.712 119.024 281.791 118.539 281.257 117.941L281.015 117.666C280.481 117.068 279.398 116.696 278.606 116.826L273.885 117.618C273.093 117.747 272.107 118.426 271.703 119.121L270.361 121.368C269.957 122.064 269.003 122.872 268.275 123.179L262.989 125.394C262.245 125.701 261.647 126.607 261.647 127.415V139.168C261.647 139.977 262.229 140.947 262.924 141.335H262.94C263.652 141.723 264.832 141.82 265.592 141.561L267.984 140.72C268.744 140.462 269.552 139.605 269.795 138.845L269.827 138.764C270.07 138.004 270.91 137.244 271.703 137.083L274.5 136.533C275.292 136.371 276.326 136.776 276.811 137.422L279.431 140.882C279.916 141.529 280.966 142.046 281.775 142.046H287.74C288.549 142.03 289.551 141.48 289.971 140.801ZM297.958 144.148L297.554 143.824C296.923 143.323 295.986 143.42 295.468 144.035L294.53 145.15C294.013 145.764 292.978 146.492 292.219 146.751L289.955 147.559C289.195 147.834 288.759 148.675 288.985 149.451L289.195 150.178C289.422 150.954 290.246 151.455 291.038 151.294L293.189 150.873C293.981 150.712 294.854 150.162 295.129 149.645C295.42 149.127 296.244 148.545 296.988 148.367C297.732 148.19 298.508 147.413 298.702 146.637L298.75 146.427C298.944 145.684 298.588 144.649 297.958 144.148ZM303.924 136.242C303.536 136.242 302.808 136.097 302.323 135.919C301.822 135.741 301.078 136.161 300.674 136.84L299.866 138.198C299.445 138.893 299.558 139.944 300.092 140.526L300.448 140.931C300.981 141.529 301.919 141.577 302.517 141.06L304.958 138.926C305.556 138.392 305.734 137.568 305.346 137.099C304.958 136.646 304.312 136.242 303.924 136.242Z" fill="#DADADA"/>
</svg>
